<?xml version="1.0" encoding="UTF-8"?>
<svg width="512pt" height="512pt" version="1.1" viewBox="0 0 512 512" xmlns="http://www.w3.org/2000/svg">
 <path d="m426.67 85.332h-341.34c-11.316 0-22.168 4.4961-30.168 12.5-8.0039 8-12.496 18.852-12.496 30.168v256c0 11.316 4.4922 22.168 12.496 30.168 8 8.0039 18.852 12.5 30.168 12.5h341.34c11.316 0 22.168-4.4961 30.168-12.5 8.0039-8 12.496-18.852 12.496-30.168v-256c0-11.316-4.4922-22.168-12.496-30.168-8-8.0039-18.852-12.5-30.168-12.5zm-283.59 271.08c-5.418 5.2344-13.195 7.2227-20.461 5.2305-7.2656-1.9922-12.941-7.668-14.934-14.934-1.9922-7.2656-0.003906-15.043 5.2305-20.461l70.246-70.25-70.246-70.25c-4.1172-3.9766-6.4648-9.4375-6.5117-15.16-0.050781-5.7227 2.1992-11.223 6.2461-15.27 4.0469-4.0469 9.5508-6.2969 15.27-6.25 5.7227 0.050782 11.184 2.3984 15.16 6.5156l85.332 85.332c4.0039 4 6.2539 9.4258 6.2539 15.082s-2.25 11.082-6.2539 15.082zm240.92 6.2539h-128c-7.6211 0-14.664-4.0664-18.477-10.668-3.8086-6.6016-3.8086-14.734 0-21.332 3.8125-6.6016 10.855-10.668 18.477-10.668h128c7.6211 0 14.664 4.0664 18.477 10.668 3.8086 6.5977 3.8086 14.73 0 21.332-3.8125 6.6016-10.855 10.668-18.477 10.668z" fill="#512ad4"/>
</svg>
